<svg xmlns="http://www.w3.org/2000/svg" viewBox="0 0 349 349"><defs><style>.a{fill:#f4a61d;}</style></defs><path class="a" d="M175,.5A174.5,174.5,0,1,0,349.5,175,174.5,174.5,0,0,0,175,.5ZM113.21,221.62c-16.06,4.62-38.5,6.72-43.58-11-2.19-7.63.52-14.06,8.36-16.31,6.22-1.79,12.62.06,14.18,5.48.75,2.61.24,5.37,1.39,9.39,1.85,6.42,7.54,9.57,16.78,6.91,12.44-3.58,19.54-15.19,16.54-25.63-6.41-22.28-51.07-10.53-59.33-39.25-5.65-19.67,13.23-34.88,31.5-40.14,11.65-3.34,36-4.71,40.43,10.56,2.25,7.82-2.19,14.32-8.21,16-8,2.31-13.29-1.61-15-7.64-.93-3.21.56-7.12-.19-9.73-1.56-5.42-8.91-5.26-15.13-3.47-9.24,2.65-18,12.14-15.09,22.38,5.83,20.27,51.3,11.34,59.1,38.44C151.18,199.39,130.08,216.77,113.21,221.62Zm148.28,41.69c-12.16,3.49-21.88-1.44-36.07-16l-39-40,.61,72.8-25.64,7.37.2-131.69c.13-34.38-.4-57.11-2.3-63.72-1.52-5.29-4.73-7.51-12.66-5.23l-9.52,2.73-.09-8.27,15.6-4.48c10-2.89,25-8.62,33.93-14.34l-.19,131.69.68.37,30.32-48.78C229.53,126.27,236,119.84,245.75,117c8.46-2.44,14.7,2.35,17.21,11.07,3.35,11.63.26,22.82-10.57,25.93-14.27,4.1-13.69-9.79-19.51-8.12-4.23,1.21-8.49,7.3-14.4,15.58l-16.66,23.68L229.29,213c25.47,25.87,30.46,27.3,36,25.7,7.66-2.2,9.27-15.53,9.71-22l8.46-2.43C283.19,229.31,278.14,258.52,261.49,263.31Z" transform="translate(-0.5 -0.5)"/></svg>